Coordinates
version=1
nRows=5
nColumns=40
inDegrees=yes

Units are S.I. units (second, meters, Newtons, ...)
Angles are in degrees.

endheader
time	pelvis_tilt	pelvis_list	pelvis_rotation	pelvis_tx	pelvis_ty	pelvis_tz	hip_flexion_r	hip_adduction_r	hip_rotation_r	knee_angle_r	knee_angle_r_beta	ankle_angle_r	subtalar_angle_r	mtp_angle_r	hip_flexion_l	hip_adduction_l	hip_rotation_l	knee_angle_l	knee_angle_l_beta	ankle_angle_l	subtalar_angle_l	mtp_angle_l	lumbar_extension	lumbar_bending	lumbar_rotation	arm_flex_r	arm_add_r	arm_rot_r	elbow_flex_r	pro_sup_r	wrist_flex_r	wrist_dev_r	arm_flex_l	arm_add_l	arm_rot_l	elbow_flex_l	pro_sup_l	wrist_flex_l	wrist_dev_l
     17.22000000	     -2.17790248	     -6.02579307	     -1.69283588	      0.80370375	      0.92834648	      0.47174023	     15.66927079	      3.00456022	    -15.47586906	     16.67888854	     16.67888854	      4.55995164	     -1.52592945	     -6.59125576	      9.29992512	    -10.94736961	     -4.43331995	     46.65005551	     46.65005551	     11.00176938	    -17.42476325	     -4.36228591	     -7.93705074	      7.72561290	      1.79555914	      2.61129753	    -11.30226477	    -10.92001390	     38.51578470	     43.67532597	      0.00000000	      0.00000000	      7.48840731	    -11.44501627	     -8.86754622	     47.51341509	     44.48087246	      0.00000000	      0.00000000
     17.23285714	     -2.11125373	     -6.13062379	     -1.26519066	      0.80277061	      0.92863086	      0.47366300	     15.10663917	      3.20665467	    -15.79740262	     16.51082187	     16.51082187	      4.84172827	     -1.57846743	     -6.90904674	     11.62765539	    -11.22864368	     -3.09136265	     50.79620013	     50.79620013	     10.42296595	    -17.70944775	     -0.90864970	     -8.10392738	      7.84114761	      1.88053601	      3.72340149	    -11.76244349	     -9.90054833	     41.16388235	     43.69637995	      0.00000000	      0.00000000	      7.02694891	    -11.05332986	     -7.82810818	     44.96159764	     44.53230487	      0.00000000	      0.00000000
     17.24571429	     -2.11611017	     -6.22584532	     -0.84969662	      0.80162598	      0.92872532	      0.47544637	     14.64687835	      3.39852848	    -16.09028304	     16.35494128	     16.35494128	      5.10127896	     -1.64695393	     -7.14549960	     14.02883164	    -11.37106632	     -1.73248105	     54.61921471	     54.61921471	      9.95869965	    -17.94574835	      2.70726068	     -8.19299781	      7.93133621	      2.01747231	      5.01454928	    -12.24059922	     -9.06891894	     43.39418070	     43.73113113	      0.00000000	      0.00000000	      6.72120776	    -10.61489468	     -6.95340880	     42.20072601	     44.57649329	      0.00000000	      0.00000000
     17.25857143	     -2.07570345	     -6.32330446	     -0.42235690	      0.80034619	      0.92878570	      0.47706547	     14.19463786	      3.57885828	    -16.35585305	     16.28517958	     16.28517958	      5.40269568	     -1.78939599	     -7.31666208	     16.31782464	    -11.43476347	     -0.45819778	     57.99478363	     57.99478363	      9.65429044	    -18.04749258	      6.07402381	     -8.33681748	      8.00385218	      2.11042800	      6.32293332	    -12.76592795	     -8.35161236	     45.72721595	     43.76338727	      0.00000000	      0.00000000	      6.34568549	    -10.15289539	     -6.10576430	     39.53438169	     44.60958609	      0.00000000	      0.00000000
     17.27142857	     -2.08151151	     -6.40116017	     -0.05961244	      0.79891669	      0.92881135	      0.47866218	     13.80836254	      3.75329686	    -16.55814600	     16.23073959	     16.23073959	      5.72468742	     -1.92913797	     -7.40059035	     18.51445989	    -11.43910583	      0.62628608	     60.76906063	     60.76906063	      9.25656322	    -18.16913070	      8.48171128	     -8.46640004	      8.04655025	      2.22319249	      7.83926502	    -13.25547085	     -7.77430029	     47.97808348	     43.78699594	      0.00000000	      0.00000000	      5.91457032	     -9.72659081	     -5.34068293	     37.10949986	     44.62569768	      0.00000000	      0.00000000
